<mxfile host="app.diagrams.net" modified="2023-07-11T09:36:24.650Z" agent="Mozilla/5.0 (Windows NT 10.0; Win64; x64) AppleWebKit/537.36 (KHTML, like Gecko) Chrome/114.0.0.0 Safari/537.36 OPR/100.0.0.0 (Edition Yx 05)" etag="joqXJH2xB4j0FlXfERLR" version="21.6.1" type="device">
  <diagram id="xrxMtvPM4jD022jB3djA" name="ER модель">
    <mxGraphModel dx="2426" dy="865" grid="1" gridSize="10" guides="1" tooltips="1" connect="1" arrows="1" fold="1" page="1" pageScale="1" pageWidth="827" pageHeight="1169" math="0" shadow="0">
      <root>
        <mxCell id="0" />
        <mxCell id="1" parent="0" />
        <mxCell id="iiYwfUWWMAuivROCwT6N-1" style="edgeStyle=orthogonalEdgeStyle;rounded=0;orthogonalLoop=1;jettySize=auto;html=1;entryX=0.013;entryY=0.136;entryDx=0;entryDy=0;fontSize=11;startArrow=ERmandOne;startFill=0;endArrow=ERzeroToMany;endFill=0;exitX=1;exitY=0.144;exitDx=0;exitDy=0;exitPerimeter=0;entryPerimeter=0;" parent="1" source="iiYwfUWWMAuivROCwT6N-3" target="iiYwfUWWMAuivROCwT6N-5" edge="1">
          <mxGeometry relative="1" as="geometry" />
        </mxCell>
        <mxCell id="iiYwfUWWMAuivROCwT6N-2" value="Клиника" style="swimlane;childLayout=stackLayout;horizontal=1;startSize=30;horizontalStack=0;rounded=1;fontSize=14;fontStyle=0;strokeWidth=2;resizeParent=0;resizeLast=1;shadow=0;dashed=0;align=center;" parent="1" vertex="1">
          <mxGeometry x="60" y="41" width="160" height="130" as="geometry" />
        </mxCell>
        <mxCell id="iiYwfUWWMAuivROCwT6N-3" value="*Номер клиники&#xa;Индекс&#xa;Город&#xa;Улица&#xa;Дом&#xa;Номер телефона" style="align=left;strokeColor=none;fillColor=none;spacingLeft=4;fontSize=12;verticalAlign=top;resizable=0;rotatable=0;part=1;" parent="iiYwfUWWMAuivROCwT6N-2" vertex="1">
          <mxGeometry y="30" width="160" height="100" as="geometry" />
        </mxCell>
        <mxCell id="iiYwfUWWMAuivROCwT6N-4" value="Врач" style="swimlane;childLayout=stackLayout;horizontal=1;startSize=30;horizontalStack=0;rounded=1;fontSize=14;fontStyle=0;strokeWidth=2;resizeParent=0;resizeLast=1;shadow=0;dashed=0;align=center;" parent="1" vertex="1">
          <mxGeometry x="340" y="41" width="160" height="140" as="geometry" />
        </mxCell>
        <mxCell id="iiYwfUWWMAuivROCwT6N-5" value="*Табельный номер&#xa;Фамилия&#xa;Имя&#xa;Отчество &#xa;Стаж работы&#xa;Образование&#xa;Специализация" style="align=left;strokeColor=none;fillColor=none;spacingLeft=4;fontSize=12;verticalAlign=top;resizable=0;rotatable=0;part=1;" parent="iiYwfUWWMAuivROCwT6N-4" vertex="1">
          <mxGeometry y="30" width="160" height="110" as="geometry" />
        </mxCell>
        <mxCell id="iiYwfUWWMAuivROCwT6N-6" value="Пациент" style="swimlane;childLayout=stackLayout;horizontal=1;startSize=30;horizontalStack=0;rounded=1;fontSize=14;fontStyle=0;strokeWidth=2;resizeParent=0;resizeLast=1;shadow=0;dashed=0;align=center;" parent="1" vertex="1">
          <mxGeometry x="920" y="41" width="160" height="170" as="geometry" />
        </mxCell>
        <mxCell id="iiYwfUWWMAuivROCwT6N-7" value="*Номер карты&#xa;Фамилия&#xa;Имя &#xa;Отчество&#xa;Дата рождения&#xa;Номер телефона&#xa;Серия и номер паспорта&#xa;Страховой полис&#xa;Электронная почта" style="align=left;strokeColor=none;fillColor=none;spacingLeft=4;fontSize=12;verticalAlign=top;resizable=0;rotatable=0;part=1;" parent="iiYwfUWWMAuivROCwT6N-6" vertex="1">
          <mxGeometry y="30" width="160" height="140" as="geometry" />
        </mxCell>
        <mxCell id="iiYwfUWWMAuivROCwT6N-8" value="Запись" style="swimlane;childLayout=stackLayout;horizontal=1;startSize=30;horizontalStack=0;rounded=1;fontSize=14;fontStyle=0;strokeWidth=2;resizeParent=0;resizeLast=1;shadow=0;dashed=0;align=center;" parent="1" vertex="1">
          <mxGeometry x="640" y="41" width="160" height="100" as="geometry" />
        </mxCell>
        <mxCell id="iiYwfUWWMAuivROCwT6N-9" value="*Номер&#xa;Дата&#xa;Время&#xa;Номер кабинет" style="align=left;strokeColor=none;fillColor=none;spacingLeft=4;fontSize=12;verticalAlign=top;resizable=0;rotatable=0;part=1;" parent="iiYwfUWWMAuivROCwT6N-8" vertex="1">
          <mxGeometry y="30" width="160" height="70" as="geometry" />
        </mxCell>
        <mxCell id="iiYwfUWWMAuivROCwT6N-10" style="edgeStyle=orthogonalEdgeStyle;rounded=0;orthogonalLoop=1;jettySize=auto;html=1;entryX=1.001;entryY=0.205;entryDx=0;entryDy=0;fontSize=11;startArrow=ERmandOne;startFill=0;endArrow=ERzeroToMany;endFill=0;exitX=0.003;exitY=0.105;exitDx=0;exitDy=0;entryPerimeter=0;exitPerimeter=0;" parent="1" source="iiYwfUWWMAuivROCwT6N-7" target="iiYwfUWWMAuivROCwT6N-9" edge="1">
          <mxGeometry relative="1" as="geometry" />
        </mxCell>
        <mxCell id="iiYwfUWWMAuivROCwT6N-11" style="edgeStyle=orthogonalEdgeStyle;rounded=0;orthogonalLoop=1;jettySize=auto;html=1;entryX=0;entryY=0.271;entryDx=0;entryDy=0;fontSize=11;startArrow=ERmandOne;startFill=0;endArrow=ERzeroToMany;endFill=0;entryPerimeter=0;" parent="1" target="iiYwfUWWMAuivROCwT6N-9" edge="1">
          <mxGeometry relative="1" as="geometry">
            <mxPoint x="500" y="90" as="sourcePoint" />
          </mxGeometry>
        </mxCell>
        <mxCell id="iiYwfUWWMAuivROCwT6N-12" value="&lt;font style=&quot;font-size: 12px;&quot;&gt;Работает&lt;/font&gt;" style="text;html=1;strokeColor=none;fillColor=none;align=center;verticalAlign=middle;whiteSpace=wrap;rounded=0;fontSize=20;" parent="1" vertex="1">
          <mxGeometry x="250" y="56" width="60" height="30" as="geometry" />
        </mxCell>
        <mxCell id="iiYwfUWWMAuivROCwT6N-13" value="&lt;font style=&quot;font-size: 12px;&quot;&gt;Принимает&lt;/font&gt;" style="text;html=1;strokeColor=none;fillColor=none;align=center;verticalAlign=middle;whiteSpace=wrap;rounded=0;fontSize=20;" parent="1" vertex="1">
          <mxGeometry x="540" y="60" width="60" height="30" as="geometry" />
        </mxCell>
        <mxCell id="iiYwfUWWMAuivROCwT6N-14" value="&lt;font style=&quot;font-size: 12px;&quot;&gt;Приходит&lt;/font&gt;" style="text;html=1;strokeColor=none;fillColor=none;align=center;verticalAlign=middle;whiteSpace=wrap;rounded=0;fontSize=20;" parent="1" vertex="1">
          <mxGeometry x="834" y="56" width="60" height="30" as="geometry" />
        </mxCell>
        <mxCell id="KnXhWLsjRR2sbLutsC09-1" value="Процедурный кабинет" style="swimlane;childLayout=stackLayout;horizontal=1;startSize=30;horizontalStack=0;rounded=1;fontSize=14;fontStyle=0;strokeWidth=2;resizeParent=0;resizeLast=1;shadow=0;dashed=0;align=center;" parent="1" vertex="1">
          <mxGeometry x="60" y="300" width="160" height="130" as="geometry" />
        </mxCell>
        <mxCell id="KnXhWLsjRR2sbLutsC09-2" value="*Номер кабинета&#xa;Название&#xa;Расписание" style="align=left;strokeColor=none;fillColor=none;spacingLeft=4;fontSize=12;verticalAlign=top;resizable=0;rotatable=0;part=1;" parent="KnXhWLsjRR2sbLutsC09-1" vertex="1">
          <mxGeometry y="30" width="160" height="100" as="geometry" />
        </mxCell>
        <mxCell id="KnXhWLsjRR2sbLutsC09-7" style="edgeStyle=orthogonalEdgeStyle;rounded=0;orthogonalLoop=1;jettySize=auto;html=1;entryX=0.5;entryY=0;entryDx=0;entryDy=0;fontSize=11;startArrow=ERmandOne;startFill=0;endArrow=ERoneToMany;endFill=0;exitX=0.5;exitY=1;exitDx=0;exitDy=0;" parent="1" source="iiYwfUWWMAuivROCwT6N-3" edge="1" target="KnXhWLsjRR2sbLutsC09-1">
          <mxGeometry relative="1" as="geometry">
            <mxPoint x="20" y="236" as="sourcePoint" />
            <mxPoint x="140" y="260" as="targetPoint" />
          </mxGeometry>
        </mxCell>
        <mxCell id="KnXhWLsjRR2sbLutsC09-8" value="Управляет" style="edgeLabel;html=1;align=center;verticalAlign=middle;resizable=0;points=[];" parent="KnXhWLsjRR2sbLutsC09-7" vertex="1" connectable="0">
          <mxGeometry x="-0.1957" relative="1" as="geometry">
            <mxPoint y="4" as="offset" />
          </mxGeometry>
        </mxCell>
        <mxCell id="KnXhWLsjRR2sbLutsC09-16" value="Уведомление" style="swimlane;childLayout=stackLayout;horizontal=1;startSize=30;horizontalStack=0;rounded=1;fontSize=14;fontStyle=0;strokeWidth=2;resizeParent=0;resizeLast=1;shadow=0;dashed=0;align=center;" parent="1" vertex="1">
          <mxGeometry x="580" y="295" width="160" height="135" as="geometry" />
        </mxCell>
        <mxCell id="KnXhWLsjRR2sbLutsC09-17" value="*Номер уведомления&#xa;Дата и время&#xa;Текст" style="align=left;strokeColor=none;fillColor=none;spacingLeft=4;fontSize=12;verticalAlign=top;resizable=0;rotatable=0;part=1;" parent="KnXhWLsjRR2sbLutsC09-16" vertex="1">
          <mxGeometry y="30" width="160" height="105" as="geometry" />
        </mxCell>
        <mxCell id="KnXhWLsjRR2sbLutsC09-18" value="Результат анализа" style="swimlane;childLayout=stackLayout;horizontal=1;startSize=30;horizontalStack=0;rounded=1;fontSize=14;fontStyle=0;strokeWidth=2;resizeParent=0;resizeLast=1;shadow=0;dashed=0;align=center;" parent="1" vertex="1">
          <mxGeometry x="895" y="295" width="210" height="135" as="geometry" />
        </mxCell>
        <mxCell id="KnXhWLsjRR2sbLutsC09-19" value="*Уникальный код анализа&#xa;Название анализа&#xa;Номер карты пациента&#xa;Результаты анализа&#xa;Дата и время проведения анализа&#xa;Дата и время получения анализа" style="align=left;strokeColor=none;fillColor=none;spacingLeft=4;fontSize=12;verticalAlign=top;resizable=0;rotatable=0;part=1;" parent="KnXhWLsjRR2sbLutsC09-18" vertex="1">
          <mxGeometry y="30" width="210" height="105" as="geometry" />
        </mxCell>
        <mxCell id="KnXhWLsjRR2sbLutsC09-20" style="edgeStyle=orthogonalEdgeStyle;rounded=0;orthogonalLoop=1;jettySize=auto;html=1;fontSize=11;startArrow=ERmandOne;startFill=0;endArrow=ERmandOne;endFill=0;entryX=1;entryY=0.5;entryDx=0;entryDy=0;exitX=0;exitY=0.5;exitDx=0;exitDy=0;" parent="1" source="KnXhWLsjRR2sbLutsC09-19" target="KnXhWLsjRR2sbLutsC09-17" edge="1">
          <mxGeometry relative="1" as="geometry">
            <mxPoint x="420" y="582.5" as="sourcePoint" />
            <mxPoint x="280" y="610" as="targetPoint" />
            <Array as="points" />
          </mxGeometry>
        </mxCell>
        <mxCell id="KnXhWLsjRR2sbLutsC09-21" value="Формирует" style="edgeLabel;html=1;align=center;verticalAlign=middle;resizable=0;points=[];" parent="1" vertex="1" connectable="0">
          <mxGeometry x="239.99588038896036" y="518.9990229885855" as="geometry">
            <mxPoint x="578" y="-142" as="offset" />
          </mxGeometry>
        </mxCell>
        <mxCell id="KnXhWLsjRR2sbLutsC09-22" style="edgeStyle=orthogonalEdgeStyle;rounded=0;orthogonalLoop=1;jettySize=auto;html=1;fontSize=11;startArrow=ERmandOne;startFill=0;endArrow=ERzeroToMany;endFill=0;entryX=0.5;entryY=0;entryDx=0;entryDy=0;exitX=0.5;exitY=1;exitDx=0;exitDy=0;" parent="1" source="iiYwfUWWMAuivROCwT6N-7" target="KnXhWLsjRR2sbLutsC09-18" edge="1">
          <mxGeometry relative="1" as="geometry">
            <mxPoint x="530" y="525.5" as="sourcePoint" />
            <mxPoint x="530" y="582.5" as="targetPoint" />
            <Array as="points" />
          </mxGeometry>
        </mxCell>
        <mxCell id="KnXhWLsjRR2sbLutsC09-23" value="Получает" style="edgeLabel;html=1;align=center;verticalAlign=middle;resizable=0;points=[];" parent="1" vertex="1" connectable="0">
          <mxGeometry x="999.9958803889604" y="249.99902298858547" as="geometry" />
        </mxCell>
        <mxCell id="q6osvRR6M3RbQy0CR4TK-1" value="&lt;h1 style=&quot;font-size: 20px;&quot;&gt;&lt;font style=&quot;font-size: 20px;&quot;&gt;Заметка для ревьюера&lt;/font&gt;&lt;/h1&gt;&lt;p style=&quot;font-size: 20px;&quot;&gt;&lt;font style=&quot;font-size: 20px;&quot;&gt;Текст заметки&lt;/font&gt;&lt;/p&gt;" style="text;html=1;strokeColor=#d6b656;fillColor=#fff2cc;spacing=5;spacingTop=-20;whiteSpace=wrap;overflow=hidden;rounded=0;fontSize=20;" vertex="1" parent="1">
          <mxGeometry x="-413" y="56" width="370" height="170" as="geometry" />
        </mxCell>
        <mxCell id="q6osvRR6M3RbQy0CR4TK-2" value="&lt;h1 style=&quot;font-size: 20px;&quot;&gt;&lt;font style=&quot;font-size: 20px;&quot;&gt;Заметка для ревьюера&lt;/font&gt;&lt;/h1&gt;&lt;p style=&quot;font-size: 20px;&quot;&gt;&lt;font style=&quot;font-size: 20px;&quot;&gt;Текст заметки&lt;/font&gt;&lt;/p&gt;" style="text;html=1;strokeColor=#d6b656;fillColor=#fff2cc;spacing=5;spacingTop=-20;whiteSpace=wrap;overflow=hidden;rounded=0;fontSize=20;" vertex="1" parent="1">
          <mxGeometry x="-403" y="66" width="370" height="170" as="geometry" />
        </mxCell>
      </root>
    </mxGraphModel>
  </diagram>
</mxfile>
